<svg xmlns="http://www.w3.org/2000/svg" xmlns:xlink="http://www.w3.org/1999/xlink" version="1.1" x="0px" y="0px" viewBox="0 0 70 87.5" style="enable-background:new 0 0 70 70;" xml:space="preserve">
    <g>
        <polygon points="23,21.1 23,33.9 29.1,27.8  " />
        <polygon points="43.7,19.6 24.3,19.6 34,30.2  " />
        <path d="M34.7,32.4c-0.2,0.2-0.5,0.3-0.7,0.3s-0.5-0.1-0.7-0.3l-2.8-3.1l-6.1,6.1h19.2l-6.1-6.1L34.7,32.4z" />
        <path d="M54.8,10H13.2C10.9,10,9,11.9,9,14.3v28.7h50V14.3C59,11.9,57.1,10,54.8,10z M47,34.1c0,0.9-0.4,1.7-0.9,2.3c0,0,0,0,0,0   c0,0,0,0,0,0c-0.6,0.6-1.4,0.9-2.3,0.9H24.2c-0.9,0-1.7-0.4-2.3-0.9c0,0,0,0,0,0c0,0,0,0,0,0C21.3,35.8,21,35,21,34.1V20.8   c0-0.9,0.4-1.7,1-2.3c0,0,0,0,0,0c0,0,0,0,0,0c0.6-0.5,1.4-0.9,2.2-0.9h19.6c0.9,0,1.6,0.3,2.2,0.9c0,0,0,0,0,0c0,0,0,0,0,0   c0.6,0.6,1,1.4,1,2.3V34.1z" />
        <path d="M9,47.4c0,2.3,1.9,4.3,4.2,4.3h14.6L25.3,58h-2.5c-0.6,0-1,0.5-1,1s0.4,1,1,1H42c0,0,0,0,0,0h3.1c0.6,0,1-0.5,1-1   s-0.4-1-1-1h-2.5l-2.6-6.3h14.6c2.3,0,4.2-1.9,4.2-4.3v-2.5H9V47.4z" />
        <polygon points="45,33.9 45,21.1 38.9,27.8  " />
    </g>
</svg>
