<svg xmlns="http://www.w3.org/2000/svg" xmlns:xlink="http://www.w3.org/1999/xlink" version="1.1" x="0px" y="0px" viewBox="0 0 52 65" enable-background="new 0 0 52 52" xml:space="preserve">
    <g>
        <g>
            <path d="M2.4697266,23.1520691C2.1777344,23.3346863,2,23.6549988,2,23.9997253v19    c0,0.3828125,0.21875,0.7324219,0.5634766,0.8994141l11.4355469,5.5519409V28.3424377    c0-0.0379639,0.0137329-0.0698242,0.0160522-0.1069336L3.4365234,23.1003113    C3.1289063,22.9499207,2.7607422,22.9684753,2.4697266,23.1520691z" />
        </g>
        <g>
            <path d="M49.3154297,29.0505066l-8.9212036-2.9609375c-2.5838013,4.5214233-5.5567627,8.7382202-6.9381714,10.6347656    c-0.5947266,0.8164063-1.5019531,1.2763672-2.4580078,1.2763672c-0.9648438,0-1.8447266-0.4492188-2.4160156-1.2314453    c-0.6282349-0.847229-3.8870239-5.2987671-6.7888184-10.3218384l-5.7941895,2.2332153v21.1433105L30,44.4269714v-3.3905029    c0-1.1257935,0.4472656-2.0367432,1-2.0367432s1,0.9109497,1,2.0367432v3.3754272l16.6845703,5.5370483    C48.7880859,49.9831238,48.8945313,49.9997253,49,49.9997253c0.2070313,0,0.4130859-0.0644531,0.5849609-0.1894531    C49.8457031,49.6227722,50,49.3210144,50,48.9997253v-19C50,29.5690613,49.7236328,29.1862488,49.3154297,29.0505066z" />
        </g>
        <g>
            <path d="M30.9978638,36.0002747c0.3200073,0,0.6200562-0.1499634,0.8099976-0.4099731    c0.4500122-0.6199951,11.1900024-15.2600098,11.1900024-21.5900269c0-6.6199951-5.3799438-12-12-12    c-6.6199951,0-12,5.3800049-12,12c0,6.3300171,10.7400513,20.9700317,11.2000122,21.5900269    C30.3878784,35.8503113,30.6779175,36.0002747,30.9978638,36.0002747z M24.9978638,14.0002747c0-3.3099976,2.6900024-6,6-6    s6,2.6900024,6,6s-2.6900024,6-6,6S24.9978638,17.3102722,24.9978638,14.0002747z" />
        </g>
    </g>
</svg>
