<svg xmlns="http://www.w3.org/2000/svg" xmlns:xlink="http://www.w3.org/1999/xlink" xmlns:a="http://ns.adobe.com/AdobeSVGViewerExtensions/3.0/" version="1.1" x="0px" y="0px" viewBox="0 -1 32 40" overflow="visible" enable-background="new 0 -1 32 32" xml:space="preserve">
    <path fill-rule="evenodd" clip-rule="evenodd" d="M18.932,21.742c0.395,0.195,0.895,0.52,1.318,0.477  c0.35-0.035,0.627-0.39,0.922-0.684c0.65-0.647,2.256-3.179,2.256-3.179s0.635-0.711,1.572-0.125  c0.938,0.584,3.02,2.042,6.627,4.283c0.57,0.473,0.316,1.231,0.316,1.231s-2.525,4.043-6.48,6.017  c-0.891,0.553-2.957-0.033-2.957-0.033S5.889,26.041,0.168,9.241C-0.189,8.49,0.133,7.137,0.133,7.137s0.498-2.996,5.07-6.852  c0.74-0.622,1.531-0.031,1.531-0.031s2.438,2.332,5.23,6.163c0.139,0.192,0.164,0.444,0.129,0.677  c-0.041,0.279-0.172,0.529-0.299,0.609c-1.947,1.536-3.092,3.109-3.303,3.391s-0.211,0.78,0.232,1.328  C9.17,12.969,12.704,18.583,18.932,21.742z" /></svg>
